<?xml version="1.0" standalone="no"?><!DOCTYPE svg PUBLIC "-//W3C//DTD SVG 1.1//EN" "http://www.w3.org/Graphics/SVG/1.1/DTD/svg11.dtd"><svg t="1723903165472" class="icon" viewBox="0 0 1024 1024" version="1.1" xmlns="http://www.w3.org/2000/svg" p-id="1626" xmlns:xlink="http://www.w3.org/1999/xlink" width="200" height="200"><path d="M704 704h-9.4c-24.32 0-48 5.8-71 13.6a347.52 347.52 0 0 1-223.28 0c-22.96-7.8-46.58-13.56-70.84-13.56H320A256 256 0 0 0 64 960a64 64 0 0 0 64 64h768a64 64 0 0 0 64-64 256 256 0 0 0-256-256zM128 960a192.2 192.2 0 0 1 192-192h9.48c13.84 0 29.84 3.24 50.32 10.18a411.5 411.5 0 0 0 264.32 0c20.62-6.98 36.66-10.22 50.48-10.22h9.4a192.2 192.2 0 0 1 192 192z m32-512a32 32 0 0 0 32-32v-32c0-176.44 143.56-320 320-320s320 143.56 320 320v32a160.18 160.18 0 0 1-160 160h-64a64 64 0 0 0-64-64h-64a64 64 0 0 0 0 128h192a224.28 224.28 0 0 0 224-224v-32C896 172.24 723.76 0 512 0S128 172.24 128 384v32a32 32 0 0 0 32 32zM512 192a191.14 191.14 0 0 1 142.46 319.52c0 0.18 0.26 0.3 0.36 0.48H672a95.78 95.78 0 0 0 81.1-45.16C762 440.72 768 413.16 768 384a256 256 0 0 0-512 0c0 80.84 38.2 152 96.7 198.94-0.12-2.34-0.7-4.56-0.7-6.94a126.5 126.5 0 0 1 17.86-64A191.16 191.16 0 0 1 512 192z" p-id="1627"></path></svg>